<svg xmlns="http://www.w3.org/2000/svg" style="overflow: visible;" viewBox="85.42 237.52 283.89 29.67">
  <defs transform="matrix(0.8125, 0, 0, 0.8125, 48, 48)" data-uid="o_f623487fc_5">
    <linearGradient x1="85.94%" y1="15.29%" x2="14.06%" y2="84.71%" id="o_f623487fc_3" gradientUnits="userSpaceOnUse" data-uid="o_f623487fc_6">
      <stop offset="0%" stop-color="rgb(0, 242, 254)" stop-opacity="1.00" data-uid="o_f623487fc_7"/>
      <stop offset="0%" stop-color="rgb(3, 254, 248)" stop-opacity="1.00" data-uid="o_f623487fc_8"/>
      <stop offset="100%" stop-color="rgb(51, 156, 248)" stop-opacity="1.00" data-uid="o_f623487fc_9"/>
    </linearGradient>
  </defs>
  <g transform="matrix(0.06847999943420291, 0, 0, 0.06847999943420291, 85.41775679588318, 236.03172397613525)" fill="url(#o_f623487fc_3)" data-uid="o_f623487fc_11">
    <path d="M75.705 158.503c-2.88-0.508-5.815-0.765-8.723-0.765c-24.287 0-44.978 17.379-49.2 41.323L0.765 295.572    c-4.788 27.151 13.407 53.135 40.558 57.923c2.88 0.508 5.815 0.765 8.723 0.765c24.285 0 44.978-17.38 49.2-41.323l17.018-96.511    C121.05 189.274 102.856 163.291 75.705 158.503z" transform="matrix(1, 0, 0, 1, 0, 0)" fill="url(#o_f623487fc_3)" data-uid="o_f623487fc_12"/>
    <path d="M215.176 114.187c-2.88-0.508-5.815-0.765-8.723-0.765c-24.286 0-44.978 17.379-49.199 41.323l-32.646 185.144    c-2.319 13.152 0.623 26.421 8.283 37.361c7.66 10.939 19.123 18.242 32.275 20.562c2.88 0.508 5.815 0.765 8.723 0.765    c24.286 0 44.978-17.38 49.2-41.323l32.646-185.144C260.522 144.958 242.327 118.975 215.176 114.187z" transform="matrix(1, 0, 0, 1, 0, 0)" fill="url(#o_f623487fc_3)" data-uid="o_f623487fc_13"/>
    <path d="M386.922 83.046c-7.661-10.94-19.123-18.242-32.274-20.562c-2.881-0.508-5.817-0.766-8.726-0.766    c-24.285 0-44.976 17.379-49.198 41.324L245.845 391.59c-2.319 13.152 0.623 26.421 8.283 37.361    c7.661 10.939 19.123 18.242 32.274 20.562c2.88 0.508 5.815 0.766 8.725 0.766c24.287 0 44.977-17.38 49.199-41.324    l50.879-288.548C397.524 107.255 394.583 93.986 386.922 83.046z" transform="matrix(1, 0, 0, 1, 0, 0)" fill="url(#o_f623487fc_3)" data-uid="o_f623487fc_14"/>
    <path d="M470.675 158.503c-2.88-0.508-5.815-0.765-8.723-0.765c-24.287 0-44.978 17.379-49.2 41.323l-17.018 96.511    c-4.788 27.151 13.407 53.135 40.558 57.923c2.88 0.508 5.815 0.765 8.723 0.765c24.285 0 44.978-17.38 49.2-41.323l17.018-96.511    C516.021 189.274 497.827 163.291 470.675 158.503z" transform="matrix(1, 0, 0, 1, 0, 0)" fill="url(#o_f623487fc_3)" data-uid="o_f623487fc_15"/>
  </g>
  <path text="AGRI VISION" fill="#0c2840" space="preserve" text-anchor="start" offset="0" font-scale="contain" font-size="48" font-family="Nunito" transform="matrix(0.8576472401618958, 0, 0, 0.8576472401618958, 127.94193029403687, 266.86639404296875)" font-style="normal" font-weight="400" letter-spacing="0" data-fl-textpath="" data-uid="o_f623487fc_16" d="M 33.31-2.26Q 33.5-1.87  33.5-1.44L 33.5-1.44Q 33.5-0.72  32.95-0.24Q 32.4 0.24  31.63 0.24L 31.63 0.24Q 30.43 0.24  29.95-0.91L 29.95-0.91L 26.54-8.69L 8.45-8.69L 4.99-0.91Q 4.51 0.24  3.31 0.24L 3.31 0.24Q 2.54 0.24  1.97-0.26Q 1.39-0.77  1.39-1.49L 1.39-1.49Q 1.39-1.87  1.58-2.26L 1.58-2.26L 15.31-32.78Q 15.6-33.46  16.18-33.79Q 16.75-34.13  17.42-34.13L 17.42-34.13Q 18.14-34.13  18.72-33.77Q 19.3-33.41  19.58-32.78L 19.58-32.78L 33.31-2.26ZM 17.47-29.18L 9.89-11.95L 25.1-11.95L 17.47-29.18ZM 63.074-17.62Q 63.794-17.62  64.244-17.18Q 64.70400000000001-16.75  64.70400000000001-15.98L 64.70400000000001-15.98L 64.70400000000001-4.03Q 64.70400000000001-2.88  64.344-2.3Q 63.983999999999995-1.73  63.024-1.39L 63.024-1.39Q 61.104-0.58  58.364000000000004-0.1Q 55.634 0.38  52.894 0.38L 52.894 0.38Q 47.854 0.38  44.204-1.68Q 40.564-3.74  38.614-7.63Q 36.674-11.52  36.674-16.94L 36.674-16.94Q 36.674-22.27  38.594-26.16Q 40.513999999999996-30.05  44.114-32.14Q 47.714-34.22  52.564-34.22L 52.564-34.22Q 55.924-34.22  58.804-33.19Q 61.684-32.16  63.644-30.24L 63.644-30.24Q 64.464-29.42  64.464-28.56L 64.464-28.56Q 64.464-27.89  64.084-27.38Q 63.694-26.88  63.123999999999995-26.88L 63.123999999999995-26.88Q 62.544-26.88  61.774-27.46L 61.774-27.46Q 59.284-29.38  57.263999999999996-30.12Q 55.244-30.86  52.604-30.86L 52.604-30.86Q 46.894-30.86  43.844-27.26Q 40.804-23.66  40.804-16.94L 40.804-16.94Q 40.804-10.08  43.894-6.5Q 46.994-2.93  52.994-2.93L 52.994-2.93Q 57.454-2.93  61.104-4.27L 61.104-4.27L 61.104-14.54L 54.094-14.54Q 53.284-14.54  52.804-14.98Q 52.324-15.41  52.324-16.08L 52.324-16.08Q 52.324-16.8  52.804-17.21Q 53.284-17.62  54.094-17.62L 54.094-17.62L 63.074-17.62ZM 98.49600000000001-2.45Q 98.83600000000001-1.92  98.83600000000001-1.34L 98.83600000000001-1.34Q 98.83600000000001-0.62  98.27600000000001-0.17Q 97.72600000000001 0.29  97.00600000000001 0.29L 97.00600000000001 0.29Q 95.906 0.29  95.27600000000001-0.67L 95.27600000000001-0.67L 88.846-10.85Q 87.596-12.82  86.25600000000001-13.56Q 84.91600000000001-14.3  82.60600000000001-14.3L 82.60600000000001-14.3L 76.55600000000001-14.3L 76.55600000000001-1.78Q 76.55600000000001-0.86  76.03600000000002-0.31Q 75.50600000000001 0.24  74.63600000000001 0.24L 74.63600000000001 0.24Q 73.72600000000001 0.24  73.19600000000001-0.31Q 72.67600000000002-0.86  72.67600000000002-1.78L 72.67600000000002-1.78L 72.67600000000002-31.92Q 72.67600000000002-32.78  73.22600000000001-33.31Q 73.77600000000001-33.84  74.686-33.84L 74.686-33.84L 86.596-33.84Q 92.11600000000001-33.84  95.016-31.39Q 97.91600000000001-28.94  97.91600000000001-24.19L 97.91600000000001-24.19Q 97.91600000000001-20.16  95.596-17.71Q 93.266-15.26  88.94600000000001-14.74L 88.94600000000001-14.74Q 90.14600000000002-14.35  91.10600000000001-13.49Q 92.066-12.62  93.02600000000001-11.09L 93.02600000000001-11.09L 98.49600000000001-2.45ZM 76.55600000000001-17.57L 86.25600000000001-17.57Q 90.19600000000001-17.57  92.13600000000001-19.2Q 94.07600000000001-20.83  94.07600000000001-24.14L 94.07600000000001-24.14Q 94.07600000000001-27.41  92.156-28.99Q 90.236-30.58  86.25600000000001-30.58L 86.25600000000001-30.58L 76.55600000000001-30.58L 76.55600000000001-17.57ZM 107.56400000000001 0.24Q 106.65400000000001 0.24  106.12400000000001-0.31Q 105.60400000000001-0.86  105.60400000000001-1.78L 105.60400000000001-1.78L 105.60400000000001-32.06Q 105.60400000000001-32.98  106.12400000000001-33.53Q 106.65400000000001-34.08  107.56400000000001-34.08L 107.56400000000001-34.08Q 108.48400000000001-34.08  109.004-33.53Q 109.534-32.98  109.534-32.06L 109.534-32.06L 109.534-1.78Q 109.534-0.86  109.004-0.31Q 108.48400000000001 0.24  107.56400000000001 0.24L 107.56400000000001 0.24ZM 155.086-33.07Q 155.326-33.6  155.786-33.89Q 156.236-34.18  156.76600000000002-34.18L 156.76600000000002-34.18Q 157.536-34.18  158.136-33.67Q 158.736-33.17  158.736-32.45L 158.736-32.45Q 158.736-32.06  158.546-31.68L 158.546-31.68L 144.76600000000002-1.06Q 144.476-0.43  143.906-0.1Q 143.326 0.24  142.656 0.24L 142.656 0.24Q 141.986 0.24  141.406-0.1Q 140.836-0.43  140.546-1.06L 140.546-1.06L 126.816-31.68Q 126.676-32.06  126.676-32.4L 126.676-32.4Q 126.676-33.17  127.296-33.67Q 127.916-34.18  128.686-34.18L 128.686-34.18Q 129.836-34.18  130.366-33.07L 130.366-33.07L 142.756-5.09L 155.086-33.07ZM 165.404 0.24Q 164.494 0.24  163.964-0.31Q 163.44400000000002-0.86  163.44400000000002-1.78L 163.44400000000002-1.78L 163.44400000000002-32.06Q 163.44400000000002-32.98  163.964-33.53Q 164.494-34.08  165.404-34.08L 165.404-34.08Q 166.324-34.08  166.84400000000002-33.53Q 167.37400000000002-32.98  167.37400000000002-32.06L 167.37400000000002-32.06L 167.37400000000002-1.78Q 167.37400000000002-0.86  166.84400000000002-0.31Q 166.324 0.24  165.404 0.24L 165.404 0.24ZM 186.532 0.38Q 182.93200000000002 0.38  179.64200000000002-0.7Q 176.35200000000003-1.78  174.38200000000003-3.6L 174.38200000000003-3.6Q 173.66200000000003-4.27  173.66200000000003-5.28L 173.66200000000003-5.28Q 173.66200000000003-5.95  174.05200000000002-6.46Q 174.43200000000002-6.96  174.96200000000002-6.96L 174.96200000000002-6.96Q 175.58200000000002-6.96  176.30200000000002-6.43L 176.30200000000002-6.43Q 180.77200000000002-2.98  186.48200000000003-2.98L 186.48200000000003-2.98Q 190.61200000000002-2.98  192.812-4.56Q 195.02200000000002-6.14  195.02200000000002-9.07L 195.02200000000002-9.07Q 195.02200000000002-10.75  193.97200000000004-11.78Q 192.91200000000003-12.82  191.18200000000002-13.44Q 189.45200000000003-14.06  186.532-14.74L 186.532-14.74Q 182.592-15.65  180.07200000000003-16.66Q 177.55200000000002-17.66  175.99200000000002-19.54Q 174.43200000000002-21.41  174.43200000000002-24.43L 174.43200000000002-24.43Q 174.43200000000002-27.31  175.99200000000002-29.54Q 177.55200000000002-31.78  180.36200000000002-33Q 183.17200000000003-34.22  186.77200000000002-34.22L 186.77200000000002-34.22Q 190.132-34.22  193.032-33.19Q 195.93200000000002-32.16  197.90200000000002-30.24L 197.90200000000002-30.24Q 198.67200000000003-29.47  198.67200000000003-28.56L 198.67200000000003-28.56Q 198.67200000000003-27.89  198.29200000000003-27.38Q 197.90200000000002-26.88  197.372-26.88L 197.372-26.88Q 196.85200000000003-26.88  195.98200000000003-27.41L 195.98200000000003-27.41Q 193.632-29.33  191.61200000000002-30.1Q 189.60200000000003-30.86  186.77200000000002-30.86L 186.77200000000002-30.86Q 182.782-30.86  180.57200000000003-29.21Q 178.372-27.55  178.372-24.58L 178.372-24.58Q 178.372-22.03  180.312-20.76Q 182.252-19.49  186.29200000000003-18.53L 186.29200000000003-18.53Q 190.65200000000002-17.47  193.15200000000002-16.58Q 195.65200000000002-15.7  197.30200000000002-13.92Q 198.96200000000002-12.14  198.96200000000002-9.17L 198.96200000000002-9.17Q 198.96200000000002-6.34  197.40200000000002-4.18Q 195.842-2.02  193.01200000000003-0.82Q 190.17200000000003 0.38  186.532 0.38L 186.532 0.38ZM 207.308 0.24Q 206.398 0.24  205.868-0.31Q 205.348-0.86  205.348-1.78L 205.348-1.78L 205.348-32.06Q 205.348-32.98  205.868-33.53Q 206.398-34.08  207.308-34.08L 207.308-34.08Q 208.228-34.08  208.74800000000002-33.53Q 209.27800000000002-32.98  209.27800000000002-32.06L 209.27800000000002-32.06L 209.27800000000002-1.78Q 209.27800000000002-0.86  208.74800000000002-0.31Q 208.228 0.24  207.308 0.24L 207.308 0.24ZM 231.79600000000002 0.38Q 227.086 0.38  223.60600000000002-1.73Q 220.126-3.84  218.25600000000003-7.73Q 216.38600000000002-11.62  216.38600000000002-16.9L 216.38600000000002-16.9Q 216.38600000000002-22.22  218.23600000000002-26.14Q 220.07600000000002-30.05  223.556-32.14Q 227.03600000000003-34.22  231.79600000000002-34.22L 231.79600000000002-34.22Q 236.54600000000002-34.22  240.026-32.14Q 243.50600000000003-30.05  245.35600000000002-26.14Q 247.19600000000003-22.22  247.19600000000003-16.94L 247.19600000000003-16.94Q 247.19600000000003-11.66  245.32600000000002-7.75Q 243.45600000000002-3.84  239.97600000000003-1.73Q 236.496 0.38  231.79600000000002 0.38L 231.79600000000002 0.38ZM 231.79600000000002-2.98Q 237.16600000000003-2.98  240.16600000000003-6.6Q 243.16600000000003-10.22  243.16600000000003-16.94L 243.16600000000003-16.94Q 243.16600000000003-23.66  240.19600000000003-27.26Q 237.216-30.86  231.79600000000002-30.86L 231.79600000000002-30.86Q 226.41600000000003-30.86  223.41600000000003-27.24Q 220.41600000000003-23.62  220.41600000000003-16.94L 220.41600000000003-16.94Q 220.41600000000003-10.27  223.41600000000003-6.62Q 226.41600000000003-2.98  231.79600000000002-2.98L 231.79600000000002-2.98ZM 279.59800000000007-34.08Q 280.468-34.08  280.94800000000004-33.53Q 281.42800000000005-32.98  281.42800000000005-32.06L 281.42800000000005-32.06L 281.42800000000005-1.78Q 281.42800000000005-0.86  280.91800000000006-0.31Q 280.41800000000006 0.24  279.50800000000004 0.24L 279.50800000000004 0.24Q 278.588 0.24  277.91800000000006-0.58L 277.91800000000006-0.58L 257.99800000000005-27.22L 257.99800000000005-1.78Q 257.99800000000005-0.86  257.49800000000005-0.31Q 256.98800000000006 0.24  256.12800000000004 0.24L 256.12800000000004 0.24Q 255.26800000000003 0.24  254.78800000000004-0.31Q 254.30800000000005-0.86  254.30800000000005-1.78L 254.30800000000005-1.78L 254.30800000000005-32.06Q 254.30800000000005-32.98  254.80800000000005-33.53Q 255.30800000000005-34.08  256.22800000000007-34.08L 256.22800000000007-34.08Q 257.18800000000005-34.08  257.85800000000006-33.26L 257.85800000000006-33.26L 277.72800000000007-6.62L 277.72800000000007-32.06Q 277.72800000000007-32.98  278.22800000000007-33.53Q 278.73800000000006-34.08  279.59800000000007-34.08L 279.59800000000007-34.08Z"/>
</svg>